# xmcd CD database file
#
# Track frame offsets:
#	150
#	25760
#	47172
#	66085
#	91187
#	107945
#	127892
#	147995
#	169042
#	190195
#	206017
#	227897
#	244702
#
# Disc length: 3457 seconds
#
# Revision: 2
# Processed by: cddbd v1.4PL0 Copyright (c) Steve Scherf et al.
# Submitted via: CDex 1.50beta9
#
DISCID=b10d7f0d
DTITLE=Marty Grebb - Smooth Sailin'
DYEAR=1999
DGENRE=Blues
TTITLE0=Smooth Sailin'
TTITLE1=High Wire Walker
TTITLE2=Soul Mate
TTITLE3=Mississippi Muddy Water
TTITLE4=Hen House
TTITLE5=On The Lookout
TTITLE6=The Real Thing
TTITLE7=A Godsend
TTITLE8=Bad Blood
TTITLE9=Sweet Girl
TTITLE10=Heaven On Earth
TTITLE11=Memphis Shuffle
TTITLE12=Love And Shelter
EXTD=YEAR: 1999
EXTT0=
EXTT1=
EXTT2=
EXTT3=
EXTT4=
EXTT5=
EXTT6=
EXTT7=
EXTT8=
EXTT9=
EXTT10=
EXTT11=
EXTT12=
PLAYORDER=
